PathFileType	4	(x/y/z)	A01_PREF_T0017.trc
DataRate	CameraRate	NumFrames	NumMarkers	Units	OrigDataRate	OrigDataStartFrame	OrigNumFrames
240	240	8	48	mm	240	73	289
Frame#	Time	TOP_HEAD			R_AC			L_AC			R_ASIS			L_ASIS			R_PSIS			L_PSIS			SACRAL			L_IC			R_IC			L_GT			R_GT			R_LAT_KNEE			R_MED_KNEE			L_MED_KNEE			L_LAT_KNEE			R_TOE			L_TOE			R_1ST_MET			L_1ST_MET			L_5TH_MET			R_5TH_MET			R_LAT_ANK			R_MED_ANK			L_MED_ANK			L_LAT_ANK			L_HEEL_SUP			R_HEEL_SUP			L_HEEL_LAT			R_HEEL_LAT			L_HEEL_MED			R_HEEL_MED			R_SHANK_PROX_POST			R_SHANK_PROX_ANT			R_SHANK_DIST_ANT			R_SHANK_DIST_POST			R_THIGH_PROX_POST			R_THIGH_PROX_ANT			R_THIGH_DIST_ANT			R_THIGH_DIST_POST			L_SHANK_PROX_ANT			L_SHANK_PROX_POST			L_SHANK_DIST_POST			L_SHANK_DIST_ANT			L_THIGH_PROX_ANT			L_THIGH_PROX_POST			L_THIGH_DIST_POST			L_THIGH_DIST_ANT			
		X1	Y1	Z1	X2	Y2	Z2	X3	Y3	Z3	X4	Y4	Z4	X5	Y5	Z5	X6	Y6	Z6	X7	Y7	Z7	X8	Y8	Z8	X9	Y9	Z9	X10	Y10	Z10	X11	Y11	Z11	X12	Y12	Z12	X13	Y13	Z13	X14	Y14	Z14	X15	Y15	Z15	X16	Y16	Z16	X17	Y17	Z17	X18	Y18	Z18	X19	Y19	Z19	X20	Y20	Z20	X21	Y21	Z21	X22	Y22	Z22	X23	Y23	Z23	X24	Y24	Z24	X25	Y25	Z25	X26	Y26	Z26	X27	Y27	Z27	X28	Y28	Z28	X29	Y29	Z29	X30	Y30	Z30	X31	Y31	Z31	X32	Y32	Z32	X33	Y33	Z33	X34	Y34	Z34	X35	Y35	Z35	X36	Y36	Z36	X37	Y37	Z37	X38	Y38	Z38	X39	Y39	Z39	X40	Y40	Z40	X41	Y41	Z41	X42	Y42	Z42	X43	Y43	Z43	X44	Y44	Z44	X45	Y45	Z45	X46	Y46	Z46	X47	Y47	Z47	X48	Y48	Z48	

73	0.30104	-116.37	1749.9	289.01	-373.62	1564.8	497.96	-353.07	1545.8	36.878	-380.2	1096.5	490.97	-343.68	1032.5	142.85	-581.06	1089.9	347.97	-562.7	1094.6	216.39	-587.57	1062.1	280.13	-367.88	1147.6	98.229	-413.19	1203.3	490.65	-403.75	952.73	101.15	-439.06	985.39	529.51	-387.87	580.8	513.32	-335.79	560.19	388.39	-349	565.98	337.51	-364.14	564.65	180.08	-565.81	70.2	411.97	-211.65	83.645	273.11	-634.81	114.2	359.23	-293.22	57.465	326.95	-318.05	46.884	196.6	-672.97	124.31	487.4	-707.3	256.47	463.24	-684.47	257.19	363.61	-417.06	129.48	300.1	-446.64	118.37	232.71	-535.26	74.788	273.81	-792.65	298.64	394.39	-522.26	46.534	242.16	-807.6	276.63	427.16	-514.89	45.438	306.57	-802.93	274.54	367.92	-559.38	510.13	502.45	-516.5	456.78	528.25	-560.84	399.19	506.71	-599.65	438.31	490.55	-455.44	838.96	520.6	-391.66	870.14	527.82	-371.21	780.66	532.16	-432.64	751.75	521.43	-323.87	480.13	198.63	-378.63	482.77	186.28	-389.22	421.71	197.8	-335.93	425.91	208.22	-330.8	816.65	144.29	-400.69	816.52	127.09	-384.85	743.03	142.71	-320.82	744.3	157.76
74	0.30522	-111.49	1750.7	289.27	-368.81	1565.3	498.26	-347.92	1546.6	37.176	-374.88	1097.3	490.71	-338.56	1032.8	142.61	-575.88	1090.5	347.97	-557.56	1095.2	216.36	-582.42	1062.7	280.12	-362.57	1148.3	98.212	-408.01	1203.7	490.71	-398.99	953.14	101.08	-433.64	986.16	529.43	-378.58	581.81	513.27	-326.04	561.72	388.36	-347.02	565.91	337.62	-362.18	564.68	180.21	-547.67	70.602	414.03	-211.54	83.509	273.1	-617.89	112.25	360.89	-293.15	57.427	326.95	-318.02	46.892	196.63	-656.14	122.64	489	-693.82	253.5	463.7	-671.13	254.07	364.01	-416.75	129.68	300.13	-446.32	118.7	232.74	-535.08	75.187	273.86	-780.36	293.06	394.5	-522.2	46.879	242.21	-794.76	270.98	427.47	-514.95	45.844	306.56	-790	268.47	368.27	-549.27	508.99	502.53	-505.74	456.25	528.41	-549.46	398.06	507.09	-588.69	436.63	490.83	-448.55	839.54	520.55	-384.83	871.2	527.73	-363.81	781.93	532.14	-424.99	752.5	521.44	-322.24	479.99	198.74	-376.99	482.85	186.39	-387.81	421.82	197.9	-334.5	425.82	208.32	-326.92	816.62	144.36	-396.8	816.96	127.16	-381.43	743.37	142.79	-317.4	744.21	157.84
75	0.3094	-106.6	1751.5	289.54	-363.97	1565.9	498.55	-342.75	1547.4	37.481	-369.6	1098.1	490.46	-333.45	1033.1	142.38	-570.72	1091.1	347.97	-552.44	1095.9	216.33	-577.29	1063.3	280.12	-357.27	1149	98.194	-402.86	1204.1	490.78	-394.24	953.52	101.03	-428.28	986.91	529.38	-369.35	582.83	513.2	-316.39	563.27	388.31	-345	565.83	337.74	-360.21	564.7	180.34	-529.48	70.946	415.98	-211.42	83.369	273.09	-600.85	110.26	362.48	-293.09	57.388	326.95	-317.99	46.901	196.66	-639.19	120.85	490.54	-680.19	250.36	464.17	-657.65	250.81	364.42	-416.42	129.89	300.15	-445.99	119.05	232.77	-534.91	75.606	273.91	-767.84	287.3	394.67	-522.13	47.242	242.26	-781.69	265.15	427.85	-515.01	46.272	306.56	-776.84	262.25	368.67	-539.18	507.76	502.56	-494.98	455.67	528.53	-538.07	396.87	507.46	-577.7	434.86	491.08	-441.72	840.12	520.5	-378.09	872.25	527.66	-356.48	783.2	532.11	-417.4	753.26	521.43	-320.6	479.85	198.85	-375.33	482.93	186.5	-386.39	421.94	198.01	-333.07	425.74	208.43	-323.06	816.57	144.44	-392.92	817.38	127.24	-378.03	743.68	142.89	-313.99	744.1	157.93
76	0.31359	-101.69	1752.2	289.82	-359.11	1566.4	498.84	-337.55	1548.2	37.793	-364.36	1098.9	490.23	-328.35	1033.4	142.16	-565.58	1091.6	347.97	-547.34	1096.4	216.3	-572.18	1063.9	280.12	-351.97	1149.6	98.175	-397.73	1204.5	490.87	-389.5	953.88	101	-422.96	987.64	529.35	-360.19	583.84	513.11	-306.85	564.83	388.24	-342.95	565.76	337.86	-358.23	564.73	180.48	-511.25	71.24	417.83	-211.3	83.226	273.08	-583.71	108.23	364	-293.02	57.347	326.95	-317.95	46.91	196.7	-622.13	118.96	492.01	-666.41	247.07	464.66	-644.02	247.42	364.85	-416.09	130.1	300.17	-445.65	119.4	232.81	-534.73	76.042	273.95	-755.1	281.39	394.9	-522.05	47.624	242.31	-768.39	259.16	428.28	-515.09	46.719	306.56	-763.45	255.91	369.13	-529.11	506.47	502.53	-484.22	455.06	528.62	-526.66	395.63	507.81	-566.7	433.01	491.3	-434.95	840.69	520.46	-371.44	873.3	527.6	-349.21	784.46	532.08	-409.89	754.01	521.42	-318.94	479.71	198.97	-373.67	483.02	186.62	-384.95	422.06	198.13	-331.61	425.66	208.55	-319.21	816.5	144.52	-389.05	817.78	127.32	-374.64	743.98	142.98	-310.59	743.98	158.03
77	0.31777	-96.775	1752.9	290.11	-354.22	1566.9	499.12	-332.32	1549	38.112	-359.16	1099.7	490.02	-323.27	1033.6	141.96	-560.47	1092.2	347.98	-542.26	1097	216.28	-567.09	1064.4	280.12	-346.68	1150.2	98.156	-392.64	1204.9	490.97	-384.78	954.2	100.98	-417.69	988.35	529.34	-351.11	584.86	512.99	-297.44	566.39	388.14	-340.87	565.68	337.99	-356.23	564.76	180.63	-493	71.488	419.57	-211.17	83.078	273.06	-566.47	106.17	365.46	-292.96	57.304	326.94	-317.91	46.921	196.73	-604.96	116.99	493.42	-652.47	243.64	465.15	-630.23	243.91	365.29	-415.75	130.32	300.18	-445.31	119.76	232.84	-534.55	76.496	273.99	-742.14	275.34	395.19	-521.97	48.023	242.36	-754.86	253.04	428.75	-515.16	47.182	306.57	-749.84	249.45	369.64	-519.06	505.1	502.44	-473.49	454.42	528.66	-515.23	394.34	508.14	-555.68	431.08	491.49	-428.25	841.26	520.43	-364.86	874.33	527.54	-342.01	785.7	532.05	-402.43	754.75	521.41	-317.28	479.57	199.1	-371.98	483.11	186.74	-383.5	422.18	198.24	-330.15	425.58	208.67	-315.37	816.41	144.6	-385.19	818.15	127.41	-371.25	744.25	143.08	-307.2	743.83	158.13
78	0.32195	-91.844	1753.5	290.41	-349.31	1567.4	499.4	-327.06	1549.8	38.436	-353.99	1100.4	489.83	-318.2	1033.8	141.78	-555.37	1092.7	347.98	-537.19	1097.5	216.26	-562.03	1064.9	280.13	-341.39	1150.8	98.137	-387.58	1205.2	491.08	-380.06	954.48	100.97	-412.44	989.04	529.35	-342.1	585.87	512.85	-288.16	567.95	388.01	-338.76	565.59	338.12	-354.21	564.78	180.78	-474.71	71.696	421.19	-211.04	82.927	273.04	-549.12	104.11	366.84	-292.9	57.258	326.93	-317.87	46.932	196.76	-587.7	114.94	494.76	-638.39	240.07	465.65	-616.3	240.29	365.74	-415.41	130.55	300.19	-444.96	120.13	232.87	-534.37	76.967	274.03	-728.95	269.16	395.53	-521.89	48.438	242.4	-741.11	246.79	429.28	-515.23	47.657	306.57	-736	242.9	370.19	-509.04	503.67	502.3	-462.76	453.75	528.67	-503.78	393	508.45	-544.65	429.09	491.65	-421.6	841.82	520.41	-358.35	875.36	527.51	-334.86	786.93	532.01	-395.03	755.49	521.41	-315.6	479.44	199.23	-370.29	483.19	186.88	-382.04	422.31	198.37	-328.66	425.51	208.79	-311.54	816.3	144.68	-381.35	818.49	127.5	-367.88	744.5	143.18	-303.81	743.67	158.24
79	0.32613	-86.894	1754.1	290.72	-344.37	1567.8	499.67	-321.77	1550.6	38.765	-348.86	1101.1	489.67	-313.15	1034	141.62	-550.29	1093.1	348	-532.15	1098	216.25	-556.98	1065.4	280.14	-336.1	1151.3	98.12	-382.55	1205.5	491.2	-375.36	954.74	100.98	-407.21	989.7	529.39	-333.17	586.87	512.68	-279.02	569.52	387.86	-336.61	565.5	338.26	-352.18	564.81	180.94	-456.41	71.87	422.7	-210.91	82.772	273.02	-531.67	102.04	368.15	-292.84	57.211	326.91	-317.83	46.945	196.8	-570.34	112.82	496.03	-624.16	236.39	466.17	-602.21	236.59	366.21	-415.06	130.78	300.2	-444.61	120.51	232.91	-534.18	77.451	274.06	-715.55	262.88	395.92	-521.8	48.867	242.44	-727.13	240.44	429.85	-515.28	48.139	306.58	-721.94	236.28	370.79	-499.05	502.17	502.1	-452.06	453.06	528.64	-492.31	391.63	508.75	-533.61	427.02	491.77	-414.99	842.36	520.41	-351.9	876.37	527.48	-327.76	788.15	531.96	-387.68	756.22	521.41	-313.9	479.31	199.38	-368.57	483.28	187.02	-380.56	422.44	198.5	-327.17	425.43	208.93	-307.72	816.17	144.77	-377.51	818.81	127.59	-364.51	744.73	143.29	-300.43	743.5	158.35
80	0.33031	-81.925	1754.7	291.03	-339.41	1568.3	499.94	-316.45	1551.3	39.099	-343.76	1101.8	489.52	-308.12	1034.1	141.47	-545.24	1093.5	348.01	-527.13	1098.5	216.24	-551.95	1065.8	280.16	-330.82	1151.8	98.106	-377.55	1205.8	491.33	-370.67	954.97	100.99	-401.99	990.33	529.44	-324.33	587.87	512.49	-270.01	571.08	387.67	-334.42	565.4	338.4	-350.13	564.84	181.12	-438.08	72.019	424.11	-210.78	82.614	273	-514.13	99.985	369.38	-292.78	57.162	326.89	-317.78	46.959	196.83	-552.88	110.65	497.23	-609.79	232.61	466.69	-587.98	232.8	366.69	-414.7	131.02	300.2	-444.24	120.9	232.94	-533.98	77.947	274.08	-701.92	256.52	396.36	-521.71	49.309	242.47	-712.93	234	430.45	-515.31	48.625	306.58	-707.66	229.59	371.42	-489.08	500.61	501.85	-441.38	452.33	528.57	-480.83	390.23	509.01	-522.55	424.9	491.86	-408.42	842.89	520.42	-345.51	877.36	527.46	-320.7	789.34	531.91	-380.37	756.93	521.41	-312.19	479.17	199.53	-366.84	483.38	187.16	-379.06	422.57	198.64	-325.65	425.35	209.07	-303.91	816.02	144.87	-373.69	819.11	127.69	-361.15	744.93	143.4	-297.06	743.31	158.48
